<svg aria-roledescription="er" role="graphics-document document" viewBox="0 0 544.00927734375 711" style="max-width: 544.00927734375px;" xmlns="http://www.w3.org/2000/svg" width="100%" id="export-svg"><style xmlns="http://www.w3.org/1999/xhtml">@import url("https://cdnjs.cloudflare.com/ajax/libs/font-awesome/6.2.0/css/all.min.css"); p {margin: 0;}</style><style>#export-svg{font-family:"trebuchet ms",verdana,arial,sans-serif;font-size:14px;fill:#333;}#export-svg .error-icon{fill:#ffffff;}#export-svg .error-text{fill:#000000;stroke:#000000;}#export-svg .edge-thickness-normal{stroke-width:1px;}#export-svg .edge-thickness-thick{stroke-width:3.5px;}#export-svg .edge-pattern-solid{stroke-dasharray:0;}#export-svg .edge-thickness-invisible{stroke-width:0;fill:none;}#export-svg .edge-pattern-dashed{stroke-dasharray:3;}#export-svg .edge-pattern-dotted{stroke-dasharray:2;}#export-svg .marker{fill:#000000;stroke:#000000;}#export-svg .marker.cross{stroke:#000000;}#export-svg svg{font-family:"trebuchet ms",verdana,arial,sans-serif;font-size:14px;}#export-svg p{margin:0;}#export-svg .entityBox{fill:#ffffff;stroke:#000000;}#export-svg .attributeBoxOdd{fill:#ffffff;stroke:#000000;}#export-svg .attributeBoxEven{fill:#f2f2f2;stroke:#000000;}#export-svg .relationshipLabelBox{fill:#ffffff;opacity:0.7;background-color:#ffffff;}#export-svg .relationshipLabelBox rect{opacity:0.5;}#export-svg .relationshipLine{stroke:#000000;}#export-svg .entityTitleText{text-anchor:middle;font-size:18px;fill:#333;}#export-svg #MD_PARENT_START{fill:#f5f5f5!important;stroke:#000000!important;stroke-width:1;}#export-svg #MD_PARENT_END{fill:#f5f5f5!important;stroke:#000000!important;stroke-width:1;}#export-svg .node .neo-node{stroke:#000000;}#export-svg [data-look="neo"].node rect,#export-svg [data-look="neo"].cluster rect,#export-svg [data-look="neo"].node polygon{stroke:url(#export-svg-gradient);filter:drop-shadow( 0px 1px 2px rgba(0, 0, 0, 0.25));}#export-svg [data-look="neo"].node rect,#export-svg [data-look="neo"].node polygon,#export-svg [data-look="neo"].node path{stroke:url(#export-svg-gradient);filter:drop-shadow( 0px 1px 2px rgba(0, 0, 0, 0.25));}#export-svg [data-look="neo"].node .neo-line path{stroke:hsl(0, 0%, 70%);filter:none;}#export-svg [data-look="neo"].node circle{stroke:url(#export-svg-gradient);filter:drop-shadow( 0px 1px 2px rgba(0, 0, 0, 0.25));}#export-svg [data-look="neo"].node circle .state-start{fill:#000000;}#export-svg [data-look="neo"].statediagram-cluster rect{fill:#ffffff;stroke:url(#export-svg-gradient);stroke-width:1px;}#export-svg [data-look="neo"].icon-shape .icon{fill:url(#export-svg-gradient);filter:drop-shadow( 0px 1px 2px rgba(0, 0, 0, 0.25));}#export-svg [data-look="neo"].icon-shape .icon-neo path{stroke:url(#export-svg-gradient);filter:drop-shadow( 0px 1px 2px rgba(0, 0, 0, 0.25));}#export-svg :root{--mermaid-font-family:"trebuchet ms",verdana,arial,sans-serif;}</style><g/><defs><marker orient="auto" markerHeight="240" markerWidth="190" refY="7" refX="0" id="MD_PARENT_START"><path d="M 18,7 L9,13 L1,7 L9,1 Z"/></marker></defs><defs><marker orient="auto" markerHeight="28" markerWidth="20" refY="7" refX="19" id="MD_PARENT_END"><path d="M 18,7 L9,13 L1,7 L9,1 Z"/></marker></defs><defs><marker orient="auto" markerHeight="18" markerWidth="18" refY="9" refX="0" id="ONLY_ONE_START"><path d="M9,0 L9,18 M15,0 L15,18" fill="none" stroke="gray"/></marker></defs><defs><marker orient="auto" markerHeight="18" markerWidth="18" refY="9" refX="18" id="ONLY_ONE_END"><path d="M3,0 L3,18 M9,0 L9,18" fill="none" stroke="gray"/></marker></defs><defs><marker orient="auto" markerHeight="18" markerWidth="30" refY="9" refX="0" id="ZERO_OR_ONE_START"><circle r="6" cy="9" cx="21" fill="white" stroke="gray"/><path d="M9,0 L9,18" fill="none" stroke="gray"/></marker></defs><defs><marker orient="auto" markerHeight="18" markerWidth="30" refY="9" refX="30" id="ZERO_OR_ONE_END"><circle r="6" cy="9" cx="9" fill="white" stroke="gray"/><path d="M21,0 L21,18" fill="none" stroke="gray"/></marker></defs><defs><marker orient="auto" markerHeight="36" markerWidth="45" refY="18" refX="18" id="ONE_OR_MORE_START"><path d="M0,18 Q 18,0 36,18 Q 18,36 0,18 M42,9 L42,27" fill="none" stroke="gray"/></marker></defs><defs><marker orient="auto" markerHeight="36" markerWidth="45" refY="18" refX="27" id="ONE_OR_MORE_END"><path d="M3,9 L3,27 M9,18 Q27,0 45,18 Q27,36 9,18" fill="none" stroke="gray"/></marker></defs><defs><marker orient="auto" markerHeight="36" markerWidth="57" refY="18" refX="18" id="ZERO_OR_MORE_START"><circle r="6" cy="18" cx="48" fill="white" stroke="gray"/><path d="M0,18 Q18,0 36,18 Q18,36 0,18" fill="none" stroke="gray"/></marker></defs><defs><marker orient="auto" markerHeight="36" markerWidth="57" refY="18" refX="39" id="ZERO_OR_MORE_END"><circle r="6" cy="18" cx="9" fill="white" stroke="gray"/><path d="M21,18 Q39,0 57,18 Q39,36 21,18" fill="none" stroke="gray"/></marker></defs><path marker-start="url(#ONLY_ONE_START)" marker-end="url(#ONLY_ONE_END)" style="stroke: gray; fill: none;" d="M185.78,167.336L170.179,179.613C154.579,191.891,123.378,216.445,107.777,237.056C92.177,257.667,92.177,274.333,92.177,282.667L92.177,291" class="er relationshipLine"/><path marker-start="url(#ONLY_ONE_START)" marker-end="url(#ZERO_OR_MORE_END)" style="stroke: gray; fill: none;" d="M342.927,164.705L359.803,177.421C376.678,190.137,410.43,215.568,427.306,240.117C444.181,264.667,444.181,288.333,444.181,300.167L444.181,312" class="er relationshipLine"/><path marker-start="url(#ONLY_ONE_START)" marker-end="url(#ZERO_OR_MORE_END)" style="stroke: gray; fill: none;" d="M264.353,191L264.353,199.333C264.353,207.667,264.353,224.333,264.353,258.75C264.353,293.167,264.353,345.333,264.353,397.5C264.353,449.667,264.353,501.833,272.367,536.25C280.381,570.667,296.408,587.333,304.422,595.667L312.436,604" class="er relationshipLine"/><path marker-start="url(#ONLY_ONE_START)" marker-end="url(#ZERO_OR_MORE_END)" style="stroke: gray; fill: none;" d="M444.181,483L444.181,494.833C444.181,506.667,444.181,530.333,436.168,550.5C428.154,570.667,412.126,587.333,404.113,595.667L396.099,604" class="er relationshipLine"/><g transform="translate(185.7798080444336,20 )" id="entity-User-818c511a-4a32-5484-ba70-875d765a9175"><rect height="171" width="157.14698791503906" y="0" x="0" class="er entityBox"/><text transform="translate(78.57349395751953,12)" style="dominant-baseline: middle; text-anchor: middle; font-size: 12px;" y="0" x="0" id="text-entity-User-818c511a-4a32-5484-ba70-875d765a9175" class="er entityLabel">User</text><rect height="21" width="53.92884826660156" y="24" x="0" class="er attributeBoxOdd"/><text transform="translate(5,34.5)" style="dominant-baseline: middle; font-size: 10.2px;" y="0" x="0" id="text-entity-User-818c511a-4a32-5484-ba70-875d765a9175-attr-1-type" class="er entityLabel">int</text><rect height="21" width="79.42315673828125" y="24" x="53.92884826660156" class="er attributeBoxOdd"/><text transform="translate(58.92884826660156,34.5)" style="dominant-baseline: middle; font-size: 10.2px;" y="0" x="0" id="text-entity-User-818c511a-4a32-5484-ba70-875d765a9175-attr-1-name" class="er entityLabel">ID</text><rect height="21" width="23.79498291015625" y="24" x="133.3520050048828" class="er attributeBoxOdd"/><text transform="translate(138.3520050048828,34.5)" style="dominant-baseline: middle; font-size: 10.2px;" y="0" x="0" id="text-entity-User-818c511a-4a32-5484-ba70-875d765a9175-attr-1-key" class="er entityLabel">PK</text><rect height="21" width="53.92884826660156" y="45" x="0" class="er attributeBoxEven"/><text transform="translate(5,55.5)" style="dominant-baseline: middle; font-size: 10.2px;" y="0" x="0" id="text-entity-User-818c511a-4a32-5484-ba70-875d765a9175-attr-2-type" class="er entityLabel">string</text><rect height="21" width="79.42315673828125" y="45" x="53.92884826660156" class="er attributeBoxEven"/><text transform="translate(58.92884826660156,55.5)" style="dominant-baseline: middle; font-size: 10.2px;" y="0" x="0" id="text-entity-User-818c511a-4a32-5484-ba70-875d765a9175-attr-2-name" class="er entityLabel">Name</text><rect height="21" width="23.79498291015625" y="45" x="133.3520050048828" class="er attributeBoxEven"/><text transform="translate(138.3520050048828,55.5)" style="dominant-baseline: middle; font-size: 10.2px;" y="0" x="0" id="text-entity-User-818c511a-4a32-5484-ba70-875d765a9175-attr-2-key" class="er entityLabel"/><rect height="21" width="53.92884826660156" y="66" x="0" class="er attributeBoxOdd"/><text transform="translate(5,76.5)" style="dominant-baseline: middle; font-size: 10.2px;" y="0" x="0" id="text-entity-User-818c511a-4a32-5484-ba70-875d765a9175-attr-3-type" class="er entityLabel">string</text><rect height="21" width="79.42315673828125" y="66" x="53.92884826660156" class="er attributeBoxOdd"/><text transform="translate(58.92884826660156,76.5)" style="dominant-baseline: middle; font-size: 10.2px;" y="0" x="0" id="text-entity-User-818c511a-4a32-5484-ba70-875d765a9175-attr-3-name" class="er entityLabel">Email</text><rect height="21" width="23.79498291015625" y="66" x="133.3520050048828" class="er attributeBoxOdd"/><text transform="translate(138.3520050048828,76.5)" style="dominant-baseline: middle; font-size: 10.2px;" y="0" x="0" id="text-entity-User-818c511a-4a32-5484-ba70-875d765a9175-attr-3-key" class="er entityLabel"/><rect height="21" width="53.92884826660156" y="87" x="0" class="er attributeBoxEven"/><text transform="translate(5,97.5)" style="dominant-baseline: middle; font-size: 10.2px;" y="0" x="0" id="text-entity-User-818c511a-4a32-5484-ba70-875d765a9175-attr-4-type" class="er entityLabel">string</text><rect height="21" width="79.42315673828125" y="87" x="53.92884826660156" class="er attributeBoxEven"/><text transform="translate(58.92884826660156,97.5)" style="dominant-baseline: middle; font-size: 10.2px;" y="0" x="0" id="text-entity-User-818c511a-4a32-5484-ba70-875d765a9175-attr-4-name" class="er entityLabel">Address</text><rect height="21" width="23.79498291015625" y="87" x="133.3520050048828" class="er attributeBoxEven"/><text transform="translate(138.3520050048828,97.5)" style="dominant-baseline: middle; font-size: 10.2px;" y="0" x="0" id="text-entity-User-818c511a-4a32-5484-ba70-875d765a9175-attr-4-key" class="er entityLabel"/><rect height="21" width="53.92884826660156" y="108" x="0" class="er attributeBoxOdd"/><text transform="translate(5,118.5)" style="dominant-baseline: middle; font-size: 10.2px;" y="0" x="0" id="text-entity-User-818c511a-4a32-5484-ba70-875d765a9175-attr-5-type" class="er entityLabel">UserType</text><rect height="21" width="79.42315673828125" y="108" x="53.92884826660156" class="er attributeBoxOdd"/><text transform="translate(58.92884826660156,118.5)" style="dominant-baseline: middle; font-size: 10.2px;" y="0" x="0" id="text-entity-User-818c511a-4a32-5484-ba70-875d765a9175-attr-5-name" class="er entityLabel">UserType</text><rect height="21" width="23.79498291015625" y="108" x="133.3520050048828" class="er attributeBoxOdd"/><text transform="translate(138.3520050048828,118.5)" style="dominant-baseline: middle; font-size: 10.2px;" y="0" x="0" id="text-entity-User-818c511a-4a32-5484-ba70-875d765a9175-attr-5-key" class="er entityLabel"/><rect height="21" width="53.92884826660156" y="129" x="0" class="er attributeBoxEven"/><text transform="translate(5,139.5)" style="dominant-baseline: middle; font-size: 10.2px;" y="0" x="0" id="text-entity-User-818c511a-4a32-5484-ba70-875d765a9175-attr-6-type" class="er entityLabel">string</text><rect height="21" width="79.42315673828125" y="129" x="53.92884826660156" class="er attributeBoxEven"/><text transform="translate(58.92884826660156,139.5)" style="dominant-baseline: middle; font-size: 10.2px;" y="0" x="0" id="text-entity-User-818c511a-4a32-5484-ba70-875d765a9175-attr-6-name" class="er entityLabel">PasswordHash</text><rect height="21" width="23.79498291015625" y="129" x="133.3520050048828" class="er attributeBoxEven"/><text transform="translate(138.3520050048828,139.5)" style="dominant-baseline: middle; font-size: 10.2px;" y="0" x="0" id="text-entity-User-818c511a-4a32-5484-ba70-875d765a9175-attr-6-key" class="er entityLabel"/><rect height="21" width="53.92884826660156" y="150" x="0" class="er attributeBoxOdd"/><text transform="translate(5,160.5)" style="dominant-baseline: middle; font-size: 10.2px;" y="0" x="0" id="text-entity-User-818c511a-4a32-5484-ba70-875d765a9175-attr-7-type" class="er entityLabel">string</text><rect height="21" width="79.42315673828125" y="150" x="53.92884826660156" class="er attributeBoxOdd"/><text transform="translate(58.92884826660156,160.5)" style="dominant-baseline: middle; font-size: 10.2px;" y="0" x="0" id="text-entity-User-818c511a-4a32-5484-ba70-875d765a9175-attr-7-name" class="er entityLabel">ProfileHeadline</text><rect height="21" width="23.79498291015625" y="150" x="133.3520050048828" class="er attributeBoxOdd"/><text transform="translate(138.3520050048828,160.5)" style="dominant-baseline: middle; font-size: 10.2px;" y="0" x="0" id="text-entity-User-818c511a-4a32-5484-ba70-875d765a9175-attr-7-key" class="er entityLabel"/></g><g transform="translate(20,291 )" id="entity-Profile-65951d1c-3786-5f44-9bc8-1c33704e73ca"><rect height="213" width="144.35330200195312" y="0" x="0" class="er entityBox"/><text transform="translate(72.17665100097656,12)" style="dominant-baseline: middle; text-anchor: middle; font-size: 12px;" y="0" x="0" id="text-entity-Profile-65951d1c-3786-5f44-9bc8-1c33704e73ca" class="er entityLabel">Profile</text><rect height="21" width="35.245819091796875" y="24" x="0" class="er attributeBoxOdd"/><text transform="translate(5,34.5)" style="dominant-baseline: middle; font-size: 10.2px;" y="0" x="0" id="text-entity-Profile-65951d1c-3786-5f44-9bc8-1c33704e73ca-attr-1-type" class="er entityLabel">int</text><rect height="21" width="85.3125" y="24" x="35.245819091796875" class="er attributeBoxOdd"/><text transform="translate(40.245819091796875,34.5)" style="dominant-baseline: middle; font-size: 10.2px;" y="0" x="0" id="text-entity-Profile-65951d1c-3786-5f44-9bc8-1c33704e73ca-attr-1-name" class="er entityLabel">ID</text><rect height="21" width="23.79498291015625" y="24" x="120.55831909179688" class="er attributeBoxOdd"/><text transform="translate(125.55831909179688,34.5)" style="dominant-baseline: middle; font-size: 10.2px;" y="0" x="0" id="text-entity-Profile-65951d1c-3786-5f44-9bc8-1c33704e73ca-attr-1-key" class="er entityLabel">PK</text><rect height="21" width="35.245819091796875" y="45" x="0" class="er attributeBoxEven"/><text transform="translate(5,55.5)" style="dominant-baseline: middle; font-size: 10.2px;" y="0" x="0" id="text-entity-Profile-65951d1c-3786-5f44-9bc8-1c33704e73ca-attr-2-type" class="er entityLabel">int</text><rect height="21" width="85.3125" y="45" x="35.245819091796875" class="er attributeBoxEven"/><text transform="translate(40.245819091796875,55.5)" style="dominant-baseline: middle; font-size: 10.2px;" y="0" x="0" id="text-entity-Profile-65951d1c-3786-5f44-9bc8-1c33704e73ca-attr-2-name" class="er entityLabel">UserID</text><rect height="21" width="23.79498291015625" y="45" x="120.55831909179688" class="er attributeBoxEven"/><text transform="translate(125.55831909179688,55.5)" style="dominant-baseline: middle; font-size: 10.2px;" y="0" x="0" id="text-entity-Profile-65951d1c-3786-5f44-9bc8-1c33704e73ca-attr-2-key" class="er entityLabel">FK</text><rect height="21" width="35.245819091796875" y="66" x="0" class="er attributeBoxOdd"/><text transform="translate(5,76.5)" style="dominant-baseline: middle; font-size: 10.2px;" y="0" x="0" id="text-entity-Profile-65951d1c-3786-5f44-9bc8-1c33704e73ca-attr-3-type" class="er entityLabel">string</text><rect height="21" width="85.3125" y="66" x="35.245819091796875" class="er attributeBoxOdd"/><text transform="translate(40.245819091796875,76.5)" style="dominant-baseline: middle; font-size: 10.2px;" y="0" x="0" id="text-entity-Profile-65951d1c-3786-5f44-9bc8-1c33704e73ca-attr-3-name" class="er entityLabel">ResumeFilePath</text><rect height="21" width="23.79498291015625" y="66" x="120.55831909179688" class="er attributeBoxOdd"/><text transform="translate(125.55831909179688,76.5)" style="dominant-baseline: middle; font-size: 10.2px;" y="0" x="0" id="text-entity-Profile-65951d1c-3786-5f44-9bc8-1c33704e73ca-attr-3-key" class="er entityLabel"/><rect height="21" width="35.245819091796875" y="87" x="0" class="er attributeBoxEven"/><text transform="translate(5,97.5)" style="dominant-baseline: middle; font-size: 10.2px;" y="0" x="0" id="text-entity-Profile-65951d1c-3786-5f44-9bc8-1c33704e73ca-attr-4-type" class="er entityLabel">string</text><rect height="21" width="85.3125" y="87" x="35.245819091796875" class="er attributeBoxEven"/><text transform="translate(40.245819091796875,97.5)" style="dominant-baseline: middle; font-size: 10.2px;" y="0" x="0" id="text-entity-Profile-65951d1c-3786-5f44-9bc8-1c33704e73ca-attr-4-name" class="er entityLabel">Skills</text><rect height="21" width="23.79498291015625" y="87" x="120.55831909179688" class="er attributeBoxEven"/><text transform="translate(125.55831909179688,97.5)" style="dominant-baseline: middle; font-size: 10.2px;" y="0" x="0" id="text-entity-Profile-65951d1c-3786-5f44-9bc8-1c33704e73ca-attr-4-key" class="er entityLabel"/><rect height="21" width="35.245819091796875" y="108" x="0" class="er attributeBoxOdd"/><text transform="translate(5,118.5)" style="dominant-baseline: middle; font-size: 10.2px;" y="0" x="0" id="text-entity-Profile-65951d1c-3786-5f44-9bc8-1c33704e73ca-attr-5-type" class="er entityLabel">string</text><rect height="21" width="85.3125" y="108" x="35.245819091796875" class="er attributeBoxOdd"/><text transform="translate(40.245819091796875,118.5)" style="dominant-baseline: middle; font-size: 10.2px;" y="0" x="0" id="text-entity-Profile-65951d1c-3786-5f44-9bc8-1c33704e73ca-attr-5-name" class="er entityLabel">Education</text><rect height="21" width="23.79498291015625" y="108" x="120.55831909179688" class="er attributeBoxOdd"/><text transform="translate(125.55831909179688,118.5)" style="dominant-baseline: middle; font-size: 10.2px;" y="0" x="0" id="text-entity-Profile-65951d1c-3786-5f44-9bc8-1c33704e73ca-attr-5-key" class="er entityLabel"/><rect height="21" width="35.245819091796875" y="129" x="0" class="er attributeBoxEven"/><text transform="translate(5,139.5)" style="dominant-baseline: middle; font-size: 10.2px;" y="0" x="0" id="text-entity-Profile-65951d1c-3786-5f44-9bc8-1c33704e73ca-attr-6-type" class="er entityLabel">string</text><rect height="21" width="85.3125" y="129" x="35.245819091796875" class="er attributeBoxEven"/><text transform="translate(40.245819091796875,139.5)" style="dominant-baseline: middle; font-size: 10.2px;" y="0" x="0" id="text-entity-Profile-65951d1c-3786-5f44-9bc8-1c33704e73ca-attr-6-name" class="er entityLabel">Experience</text><rect height="21" width="23.79498291015625" y="129" x="120.55831909179688" class="er attributeBoxEven"/><text transform="translate(125.55831909179688,139.5)" style="dominant-baseline: middle; font-size: 10.2px;" y="0" x="0" id="text-entity-Profile-65951d1c-3786-5f44-9bc8-1c33704e73ca-attr-6-key" class="er entityLabel"/><rect height="21" width="35.245819091796875" y="150" x="0" class="er attributeBoxOdd"/><text transform="translate(5,160.5)" style="dominant-baseline: middle; font-size: 10.2px;" y="0" x="0" id="text-entity-Profile-65951d1c-3786-5f44-9bc8-1c33704e73ca-attr-7-type" class="er entityLabel">string</text><rect height="21" width="85.3125" y="150" x="35.245819091796875" class="er attributeBoxOdd"/><text transform="translate(40.245819091796875,160.5)" style="dominant-baseline: middle; font-size: 10.2px;" y="0" x="0" id="text-entity-Profile-65951d1c-3786-5f44-9bc8-1c33704e73ca-attr-7-name" class="er entityLabel">Name</text><rect height="21" width="23.79498291015625" y="150" x="120.55831909179688" class="er attributeBoxOdd"/><text transform="translate(125.55831909179688,160.5)" style="dominant-baseline: middle; font-size: 10.2px;" y="0" x="0" id="text-entity-Profile-65951d1c-3786-5f44-9bc8-1c33704e73ca-attr-7-key" class="er entityLabel"/><rect height="21" width="35.245819091796875" y="171" x="0" class="er attributeBoxEven"/><text transform="translate(5,181.5)" style="dominant-baseline: middle; font-size: 10.2px;" y="0" x="0" id="text-entity-Profile-65951d1c-3786-5f44-9bc8-1c33704e73ca-attr-8-type" class="er entityLabel">string</text><rect height="21" width="85.3125" y="171" x="35.245819091796875" class="er attributeBoxEven"/><text transform="translate(40.245819091796875,181.5)" style="dominant-baseline: middle; font-size: 10.2px;" y="0" x="0" id="text-entity-Profile-65951d1c-3786-5f44-9bc8-1c33704e73ca-attr-8-name" class="er entityLabel">Email</text><rect height="21" width="23.79498291015625" y="171" x="120.55831909179688" class="er attributeBoxEven"/><text transform="translate(125.55831909179688,181.5)" style="dominant-baseline: middle; font-size: 10.2px;" y="0" x="0" id="text-entity-Profile-65951d1c-3786-5f44-9bc8-1c33704e73ca-attr-8-key" class="er entityLabel"/><rect height="21" width="35.245819091796875" y="192" x="0" class="er attributeBoxOdd"/><text transform="translate(5,202.5)" style="dominant-baseline: middle; font-size: 10.2px;" y="0" x="0" id="text-entity-Profile-65951d1c-3786-5f44-9bc8-1c33704e73ca-attr-9-type" class="er entityLabel">string</text><rect height="21" width="85.3125" y="192" x="35.245819091796875" class="er attributeBoxOdd"/><text transform="translate(40.245819091796875,202.5)" style="dominant-baseline: middle; font-size: 10.2px;" y="0" x="0" id="text-entity-Profile-65951d1c-3786-5f44-9bc8-1c33704e73ca-attr-9-name" class="er entityLabel">Phone</text><rect height="21" width="23.79498291015625" y="192" x="120.55831909179688" class="er attributeBoxOdd"/><text transform="translate(125.55831909179688,202.5)" style="dominant-baseline: middle; font-size: 10.2px;" y="0" x="0" id="text-entity-Profile-65951d1c-3786-5f44-9bc8-1c33704e73ca-attr-9-key" class="er entityLabel"/></g><g transform="translate(364.3533020019531,312 )" id="entity-Job-7d110984-6e7e-5c4b-993b-9f7e6b56ce9b"><rect height="171" width="159.65594482421875" y="0" x="0" class="er entityBox"/><text transform="translate(79.82797241210938,12)" style="dominant-baseline: middle; text-anchor: middle; font-size: 12px;" y="0" x="0" id="text-entity-Job-7d110984-6e7e-5c4b-993b-9f7e6b56ce9b" class="er entityLabel">Job</text><rect height="21" width="49.4078369140625" y="24" x="0" class="er attributeBoxOdd"/><text transform="translate(5,34.5)" style="dominant-baseline: middle; font-size: 10.2px;" y="0" x="0" id="text-entity-Job-7d110984-6e7e-5c4b-993b-9f7e6b56ce9b-attr-1-type" class="er entityLabel">int</text><rect height="21" width="86.453125" y="24" x="49.4078369140625" class="er attributeBoxOdd"/><text transform="translate(54.4078369140625,34.5)" style="dominant-baseline: middle; font-size: 10.2px;" y="0" x="0" id="text-entity-Job-7d110984-6e7e-5c4b-993b-9f7e6b56ce9b-attr-1-name" class="er entityLabel">ID</text><rect height="21" width="23.79498291015625" y="24" x="135.8609619140625" class="er attributeBoxOdd"/><text transform="translate(140.8609619140625,34.5)" style="dominant-baseline: middle; font-size: 10.2px;" y="0" x="0" id="text-entity-Job-7d110984-6e7e-5c4b-993b-9f7e6b56ce9b-attr-1-key" class="er entityLabel">PK</text><rect height="21" width="49.4078369140625" y="45" x="0" class="er attributeBoxEven"/><text transform="translate(5,55.5)" style="dominant-baseline: middle; font-size: 10.2px;" y="0" x="0" id="text-entity-Job-7d110984-6e7e-5c4b-993b-9f7e6b56ce9b-attr-2-type" class="er entityLabel">string</text><rect height="21" width="86.453125" y="45" x="49.4078369140625" class="er attributeBoxEven"/><text transform="translate(54.4078369140625,55.5)" style="dominant-baseline: middle; font-size: 10.2px;" y="0" x="0" id="text-entity-Job-7d110984-6e7e-5c4b-993b-9f7e6b56ce9b-attr-2-name" class="er entityLabel">Title</text><rect height="21" width="23.79498291015625" y="45" x="135.8609619140625" class="er attributeBoxEven"/><text transform="translate(140.8609619140625,55.5)" style="dominant-baseline: middle; font-size: 10.2px;" y="0" x="0" id="text-entity-Job-7d110984-6e7e-5c4b-993b-9f7e6b56ce9b-attr-2-key" class="er entityLabel"/><rect height="21" width="49.4078369140625" y="66" x="0" class="er attributeBoxOdd"/><text transform="translate(5,76.5)" style="dominant-baseline: middle; font-size: 10.2px;" y="0" x="0" id="text-entity-Job-7d110984-6e7e-5c4b-993b-9f7e6b56ce9b-attr-3-type" class="er entityLabel">string</text><rect height="21" width="86.453125" y="66" x="49.4078369140625" class="er attributeBoxOdd"/><text transform="translate(54.4078369140625,76.5)" style="dominant-baseline: middle; font-size: 10.2px;" y="0" x="0" id="text-entity-Job-7d110984-6e7e-5c4b-993b-9f7e6b56ce9b-attr-3-name" class="er entityLabel">Description</text><rect height="21" width="23.79498291015625" y="66" x="135.8609619140625" class="er attributeBoxOdd"/><text transform="translate(140.8609619140625,76.5)" style="dominant-baseline: middle; font-size: 10.2px;" y="0" x="0" id="text-entity-Job-7d110984-6e7e-5c4b-993b-9f7e6b56ce9b-attr-3-key" class="er entityLabel"/><rect height="21" width="49.4078369140625" y="87" x="0" class="er attributeBoxEven"/><text transform="translate(5,97.5)" style="dominant-baseline: middle; font-size: 10.2px;" y="0" x="0" id="text-entity-Job-7d110984-6e7e-5c4b-993b-9f7e6b56ce9b-attr-4-type" class="er entityLabel">datetime</text><rect height="21" width="86.453125" y="87" x="49.4078369140625" class="er attributeBoxEven"/><text transform="translate(54.4078369140625,97.5)" style="dominant-baseline: middle; font-size: 10.2px;" y="0" x="0" id="text-entity-Job-7d110984-6e7e-5c4b-993b-9f7e6b56ce9b-attr-4-name" class="er entityLabel">PostedOn</text><rect height="21" width="23.79498291015625" y="87" x="135.8609619140625" class="er attributeBoxEven"/><text transform="translate(140.8609619140625,97.5)" style="dominant-baseline: middle; font-size: 10.2px;" y="0" x="0" id="text-entity-Job-7d110984-6e7e-5c4b-993b-9f7e6b56ce9b-attr-4-key" class="er entityLabel"/><rect height="21" width="49.4078369140625" y="108" x="0" class="er attributeBoxOdd"/><text transform="translate(5,118.5)" style="dominant-baseline: middle; font-size: 10.2px;" y="0" x="0" id="text-entity-Job-7d110984-6e7e-5c4b-993b-9f7e6b56ce9b-attr-5-type" class="er entityLabel">int</text><rect height="21" width="86.453125" y="108" x="49.4078369140625" class="er attributeBoxOdd"/><text transform="translate(54.4078369140625,118.5)" style="dominant-baseline: middle; font-size: 10.2px;" y="0" x="0" id="text-entity-Job-7d110984-6e7e-5c4b-993b-9f7e6b56ce9b-attr-5-name" class="er entityLabel">TotalApplications</text><rect height="21" width="23.79498291015625" y="108" x="135.8609619140625" class="er attributeBoxOdd"/><text transform="translate(140.8609619140625,118.5)" style="dominant-baseline: middle; font-size: 10.2px;" y="0" x="0" id="text-entity-Job-7d110984-6e7e-5c4b-993b-9f7e6b56ce9b-attr-5-key" class="er entityLabel"/><rect height="21" width="49.4078369140625" y="129" x="0" class="er attributeBoxEven"/><text transform="translate(5,139.5)" style="dominant-baseline: middle; font-size: 10.2px;" y="0" x="0" id="text-entity-Job-7d110984-6e7e-5c4b-993b-9f7e6b56ce9b-attr-6-type" class="er entityLabel">string</text><rect height="21" width="86.453125" y="129" x="49.4078369140625" class="er attributeBoxEven"/><text transform="translate(54.4078369140625,139.5)" style="dominant-baseline: middle; font-size: 10.2px;" y="0" x="0" id="text-entity-Job-7d110984-6e7e-5c4b-993b-9f7e6b56ce9b-attr-6-name" class="er entityLabel">CompanyName</text><rect height="21" width="23.79498291015625" y="129" x="135.8609619140625" class="er attributeBoxEven"/><text transform="translate(140.8609619140625,139.5)" style="dominant-baseline: middle; font-size: 10.2px;" y="0" x="0" id="text-entity-Job-7d110984-6e7e-5c4b-993b-9f7e6b56ce9b-attr-6-key" class="er entityLabel"/><rect height="21" width="49.4078369140625" y="150" x="0" class="er attributeBoxOdd"/><text transform="translate(5,160.5)" style="dominant-baseline: middle; font-size: 10.2px;" y="0" x="0" id="text-entity-Job-7d110984-6e7e-5c4b-993b-9f7e6b56ce9b-attr-7-type" class="er entityLabel">int</text><rect height="21" width="86.453125" y="150" x="49.4078369140625" class="er attributeBoxOdd"/><text transform="translate(54.4078369140625,160.5)" style="dominant-baseline: middle; font-size: 10.2px;" y="0" x="0" id="text-entity-Job-7d110984-6e7e-5c4b-993b-9f7e6b56ce9b-attr-7-name" class="er entityLabel">PostedByID</text><rect height="21" width="23.79498291015625" y="150" x="135.8609619140625" class="er attributeBoxOdd"/><text transform="translate(140.8609619140625,160.5)" style="dominant-baseline: middle; font-size: 10.2px;" y="0" x="0" id="text-entity-Job-7d110984-6e7e-5c4b-993b-9f7e6b56ce9b-attr-7-key" class="er entityLabel">FK</text></g><g transform="translate(300.8505401611328,604 )" id="entity-Application-4dc8d5a5-9260-5e90-9141-9adea6b08aa9"><rect height="87" width="106.83349609375" y="0" x="0" class="er entityBox"/><text transform="translate(53.416748046875,12)" style="dominant-baseline: middle; text-anchor: middle; font-size: 12px;" y="0" x="0" id="text-entity-Application-4dc8d5a5-9260-5e90-9141-9adea6b08aa9" class="er entityLabel">Application</text><rect height="21" width="20.92913818359375" y="24" x="0" class="er attributeBoxOdd"/><text transform="translate(5,34.5)" style="dominant-baseline: middle; font-size: 10.2px;" y="0" x="0" id="text-entity-Application-4dc8d5a5-9260-5e90-9141-9adea6b08aa9-attr-1-type" class="er entityLabel">int</text><rect height="21" width="62.109375" y="24" x="20.92913818359375" class="er attributeBoxOdd"/><text transform="translate(25.92913818359375,34.5)" style="dominant-baseline: middle; font-size: 10.2px;" y="0" x="0" id="text-entity-Application-4dc8d5a5-9260-5e90-9141-9adea6b08aa9-attr-1-name" class="er entityLabel">ID</text><rect height="21" width="23.79498291015625" y="24" x="83.03851318359375" class="er attributeBoxOdd"/><text transform="translate(88.03851318359375,34.5)" style="dominant-baseline: middle; font-size: 10.2px;" y="0" x="0" id="text-entity-Application-4dc8d5a5-9260-5e90-9141-9adea6b08aa9-attr-1-key" class="er entityLabel">PK</text><rect height="21" width="20.92913818359375" y="45" x="0" class="er attributeBoxEven"/><text transform="translate(5,55.5)" style="dominant-baseline: middle; font-size: 10.2px;" y="0" x="0" id="text-entity-Application-4dc8d5a5-9260-5e90-9141-9adea6b08aa9-attr-2-type" class="er entityLabel">int</text><rect height="21" width="62.109375" y="45" x="20.92913818359375" class="er attributeBoxEven"/><text transform="translate(25.92913818359375,55.5)" style="dominant-baseline: middle; font-size: 10.2px;" y="0" x="0" id="text-entity-Application-4dc8d5a5-9260-5e90-9141-9adea6b08aa9-attr-2-name" class="er entityLabel">ApplicantID</text><rect height="21" width="23.79498291015625" y="45" x="83.03851318359375" class="er attributeBoxEven"/><text transform="translate(88.03851318359375,55.5)" style="dominant-baseline: middle; font-size: 10.2px;" y="0" x="0" id="text-entity-Application-4dc8d5a5-9260-5e90-9141-9adea6b08aa9-attr-2-key" class="er entityLabel">FK</text><rect height="21" width="20.92913818359375" y="66" x="0" class="er attributeBoxOdd"/><text transform="translate(5,76.5)" style="dominant-baseline: middle; font-size: 10.2px;" y="0" x="0" id="text-entity-Application-4dc8d5a5-9260-5e90-9141-9adea6b08aa9-attr-3-type" class="er entityLabel">int</text><rect height="21" width="62.109375" y="66" x="20.92913818359375" class="er attributeBoxOdd"/><text transform="translate(25.92913818359375,76.5)" style="dominant-baseline: middle; font-size: 10.2px;" y="0" x="0" id="text-entity-Application-4dc8d5a5-9260-5e90-9141-9adea6b08aa9-attr-3-name" class="er entityLabel">JobID</text><rect height="21" width="23.79498291015625" y="66" x="83.03851318359375" class="er attributeBoxOdd"/><text transform="translate(88.03851318359375,76.5)" style="dominant-baseline: middle; font-size: 10.2px;" y="0" x="0" id="text-entity-Application-4dc8d5a5-9260-5e90-9141-9adea6b08aa9-attr-3-key" class="er entityLabel">FK</text></g><rect height="14" width="19.359375" y="212.45455932617188" x="113.8993911743164" class="er relationshipLabelBox"/><text style="text-anchor: middle; dominant-baseline: middle; font-size: 12px;" y="219.45455932617188" x="123.5790786743164" id="rel5" class="er relationshipLabel">has</text><rect height="14" width="28.6875" y="218.2193145751953" x="400.9245910644531" class="er relationshipLabelBox"/><text style="text-anchor: middle; dominant-baseline: middle; font-size: 12px;" y="225.2193145751953" x="415.2683410644531" id="rel6" class="er relationshipLabel">posts</text><rect height="14" width="41.34375" y="396.8711242675781" x="243.68240356445312" class="er relationshipLabelBox"/><text style="text-anchor: middle; dominant-baseline: middle; font-size: 12px;" y="403.8711242675781" x="264.3542785644531" id="rel7" class="er relationshipLabel">submits</text><rect height="14" width="44.6875" y="542.9826049804688" x="414.027587890625" class="er relationshipLabelBox"/><text style="text-anchor: middle; dominant-baseline: middle; font-size: 12px;" y="549.9826049804688" x="436.371337890625" id="rel8" class="er relationshipLabel">receives</text></svg>